<svg width="135" height="36" viewBox="0 0 135 36" fill="none" xmlns="http://www.w3.org/2000/svg">
<rect x="1" y="1" width="133" height="34" rx="17" stroke="#D13130" stroke-width="2"/>
<circle cx="18" cy="18" r="3" fill="#D13130"/>
<path d="M40.3828 21.5H32.7266V21.0781H33.9766V12.5469H32.7266V12.125H37.4922V12.5469H36.1641V21.0781H37.7734C38.0859 21.0781 38.362 21.026 38.6016 20.9219C39.0078 20.724 39.3203 20.276 39.5391 19.5781L39.9922 18.1094H40.4453L40.3828 21.5ZM44.3047 21.0938C44.3672 21.0938 44.4245 21.099 44.4766 21.1094C44.612 21.1302 44.6797 21.2604 44.6797 21.5H40.8359V21.0938C40.9714 21.0938 41.0911 21.0833 41.1953 21.0625C41.5599 21 41.7422 20.7396 41.7422 20.2812V15.1875H40.8359V14.7812H43.7266V21.0938H44.3047ZM43.8672 12.7344C43.8672 12.9323 43.8151 13.1198 43.7109 13.2969C43.4922 13.6823 43.1536 13.875 42.6953 13.875C42.5078 13.875 42.3255 13.8281 42.1484 13.7344C41.7422 13.526 41.5391 13.1927 41.5391 12.7344C41.5391 12.5365 41.5859 12.349 41.6797 12.1719C41.9089 11.7656 42.2474 11.5625 42.6953 11.5625C42.8932 11.5625 43.0807 11.6146 43.2578 11.7188C43.6641 11.9375 43.8672 12.276 43.8672 12.7344ZM48.6328 15.1719H47.5703L49.2891 19.8906L51.1328 15.1719H49.8516V14.7812H52.3828C52.3828 14.9583 52.3724 15.0781 52.3516 15.1406C52.3307 15.1615 52.237 15.1719 52.0703 15.1719C52.0078 15.1719 51.9453 15.1771 51.8828 15.1875C51.7161 15.2188 51.5807 15.3646 51.4766 15.625L49.2109 21.5781H48.6484C48.4297 21.5781 48.263 21.5417 48.1484 21.4688C48.013 21.375 47.8307 21.0312 47.6016 20.4375L45.6328 15.1719H45.0234V14.7812H48.6328V15.1719ZM56.3828 14.9531C55.5495 14.9844 55.0964 15.8646 55.0234 17.5938L56.0234 17.6406C56.4401 17.6615 56.7526 17.6354 56.9609 17.5625C57.2526 17.4479 57.3984 17.1458 57.3984 16.6562C57.388 15.5417 57.0495 14.974 56.3828 14.9531ZM59.3047 19.8906C59.2422 20.0573 59.1589 20.2188 59.0547 20.375C58.5234 21.2292 57.6484 21.6562 56.4297 21.6562C55.7422 21.6562 55.1276 21.5156 54.5859 21.2344C53.4505 20.6406 52.8828 19.5885 52.8828 18.0781C52.8828 17.151 53.1328 16.375 53.6328 15.75C54.2891 14.9479 55.2057 14.5469 56.3828 14.5469C57.0286 14.5469 57.6068 14.6562 58.1172 14.875C59.0234 15.2812 59.4766 15.9271 59.4766 16.8125C59.4766 16.9896 59.4453 17.151 59.3828 17.2969C59.112 17.8802 58.138 18.1458 56.4609 18.0938L55.0234 18.0469C55.0339 18.651 55.0859 19.1719 55.1797 19.6094C55.4193 20.6719 55.9557 21.2031 56.7891 21.2031C57.0495 21.2031 57.3047 21.1562 57.5547 21.0625C58.1797 20.8333 58.638 20.401 58.9297 19.7656L59.3047 19.8906ZM68.9609 21.6562C68.1276 21.6042 67.6016 21.1302 67.3828 20.2344C67.3307 20.3802 67.263 20.5208 67.1797 20.6562C66.763 21.3229 66.112 21.6562 65.2266 21.6562C64.9349 21.6562 64.6693 21.6198 64.4297 21.5469C63.6172 21.2865 63.2109 20.6927 63.2109 19.7656C63.2214 18.401 64.5651 17.6927 67.2422 17.6406V16.625C67.2422 16.3229 67.2214 16.0625 67.1797 15.8438C67.0755 15.25 66.7786 14.9531 66.2891 14.9531C66.1432 14.9531 66.013 14.9792 65.8984 15.0312C65.7214 15.1354 65.5755 15.3958 65.4609 15.8125C65.4193 15.9583 65.388 16.0625 65.3672 16.125C65.2109 16.5625 64.9089 16.7812 64.4609 16.7812C64.3568 16.7812 64.2578 16.7656 64.1641 16.7344C63.7786 16.6302 63.5859 16.375 63.5859 15.9688C63.5859 15.7917 63.6328 15.625 63.7266 15.4688C64.0911 14.8542 64.9818 14.5469 66.3984 14.5469C66.763 14.5469 67.1016 14.5833 67.4141 14.6562C68.6224 14.9583 69.2266 15.7604 69.2266 17.0625V20.3281C69.2266 20.8281 69.3411 21.0885 69.5703 21.1094C69.8724 21.099 70.0547 20.7344 70.1172 20.0156L70.5234 20.0312C70.4922 20.3542 70.4453 20.6198 70.3828 20.8281C70.1953 21.3802 69.7214 21.6562 68.9609 21.6562ZM66.0391 20.9844C66.112 20.9844 66.1953 20.9688 66.2891 20.9375C66.7266 20.7708 67.0443 20.3229 67.2422 19.5938V18.0781C66.7734 18.099 66.388 18.1562 66.0859 18.25C65.5234 18.4583 65.2422 18.9062 65.2422 19.5938C65.2526 20.5 65.5182 20.9635 66.0391 20.9844ZM78.6953 21.0938C78.7682 21.0938 78.8307 21.099 78.8828 21.1094C79.0078 21.1406 79.0703 21.2708 79.0703 21.5H76.2891L76.2109 20.2188C76.1797 20.2812 76.1484 20.3438 76.1172 20.4062C75.6276 21.2396 74.9141 21.6562 73.9766 21.6562C72.5078 21.6458 71.763 20.7969 71.7422 19.1094V15.1875H70.8359V14.7812H73.7266V19.375C73.7266 19.5208 73.737 19.6615 73.7578 19.7969C73.862 20.4948 74.2109 20.8438 74.8047 20.8438C74.9609 20.8438 75.1172 20.8073 75.2734 20.7344C75.7943 20.474 76.0911 19.9375 76.1641 19.125L76.1797 15.1875H75.4141V14.7812H78.1641V21.0938H78.6953ZM79.8516 18.125C79.8516 17.1042 80.1589 16.2708 80.7734 15.625C81.4609 14.9062 82.3568 14.5469 83.4609 14.5469C84.2734 14.5469 84.9505 14.7083 85.4922 15.0312C86.0443 15.375 86.3203 15.776 86.3203 16.2344C86.3203 16.3177 86.3099 16.401 86.2891 16.4844C86.1641 16.8802 85.8359 17.0781 85.3047 17.0781C85.0547 17.0781 84.8568 17.026 84.7109 16.9219C84.5234 16.7865 84.3984 16.4792 84.3359 16C84.3047 15.8021 84.2786 15.6615 84.2578 15.5781C84.1536 15.151 83.8724 14.9375 83.4141 14.9375C83.1849 14.9375 82.987 14.9844 82.8203 15.0781C82.2682 15.4115 81.9922 16.4531 81.9922 18.2031C81.9922 19.0781 82.0807 19.7552 82.2578 20.2344C82.4974 20.8802 82.9766 21.2031 83.6953 21.2031C83.9661 21.2031 84.237 21.1615 84.5078 21.0781C85.2057 20.8594 85.7005 20.4375 85.9922 19.8125L86.3984 19.9219C86.2943 20.1927 86.1432 20.4427 85.9453 20.6719C85.362 21.3281 84.5286 21.6562 83.4453 21.6562C82.7474 21.6562 82.1276 21.526 81.5859 21.2656C80.4297 20.6927 79.8516 19.6458 79.8516 18.125ZM86.7109 15.2656V14.8594H87.7891V13.375L89.7734 13.0469V14.8594H91.8359V15.2656H89.7734V20C89.7734 20.1354 89.7839 20.2656 89.8047 20.3906C89.888 20.9323 90.1224 21.2031 90.5078 21.2031C90.5703 21.2031 90.6328 21.1979 90.6953 21.1875C91.1016 21.1042 91.4089 20.6406 91.6172 19.7969L92.0391 19.8594C91.9557 20.2865 91.8411 20.6302 91.6953 20.8906C91.3932 21.4115 90.8411 21.6719 90.0391 21.6719C89.9141 21.6719 89.7891 21.6667 89.6641 21.6562C88.4141 21.5104 87.7891 20.6823 87.7891 19.1719V15.2656H86.7109ZM95.9766 21.0938C96.0391 21.0938 96.0964 21.099 96.1484 21.1094C96.2839 21.1302 96.3516 21.2604 96.3516 21.5H92.5078V21.0938C92.6432 21.0938 92.763 21.0833 92.8672 21.0625C93.2318 21 93.4141 20.7396 93.4141 20.2812V15.1875H92.5078V14.7812H95.3984V21.0938H95.9766ZM95.5391 12.7344C95.5391 12.9323 95.487 13.1198 95.3828 13.2969C95.1641 13.6823 94.8255 13.875 94.3672 13.875C94.1797 13.875 93.9974 13.8281 93.8203 13.7344C93.4141 13.526 93.2109 13.1927 93.2109 12.7344C93.2109 12.5365 93.2578 12.349 93.3516 12.1719C93.5807 11.7656 93.9193 11.5625 94.3672 11.5625C94.5651 11.5625 94.7526 11.6146 94.9297 11.7188C95.3359 11.9375 95.5391 12.276 95.5391 12.7344ZM99.2734 18.1094C99.2734 19.0885 99.3359 19.8021 99.4609 20.25C99.6484 20.9167 100.065 21.25 100.711 21.25C101.076 21.25 101.372 21.1406 101.602 20.9219C101.997 20.526 102.195 19.5677 102.195 18.0469C102.195 17.099 102.133 16.4062 102.008 15.9688C101.82 15.2917 101.393 14.9531 100.727 14.9531C100.331 14.9531 100.023 15.0729 99.8047 15.3125C99.4505 15.7188 99.2734 16.651 99.2734 18.1094ZM100.805 14.5469C101.701 14.5469 102.466 14.7917 103.102 15.2812C103.924 15.9375 104.336 16.849 104.336 18.0156C104.336 18.8906 104.076 19.6615 103.555 20.3281C102.857 21.2135 101.893 21.6562 100.664 21.6562C99.7682 21.6562 98.9974 21.3854 98.3516 20.8438C97.5391 20.1562 97.1328 19.224 97.1328 18.0469C97.1328 17.2135 97.3724 16.4844 97.8516 15.8594C98.5391 14.9844 99.5234 14.5469 100.805 14.5469ZM108.398 21.0938C108.461 21.0938 108.518 21.099 108.57 21.1094C108.706 21.1302 108.773 21.2604 108.773 21.5H105.117V21.0938C105.201 21.0938 105.279 21.0885 105.352 21.0781C105.799 21.026 106.023 20.7604 106.023 20.2812V15.1875H105.117V14.7812H107.898L107.977 16C108.07 15.8125 108.195 15.6302 108.352 15.4531C108.883 14.849 109.529 14.5469 110.289 14.5469C110.56 14.5469 110.82 14.5885 111.07 14.6719C111.987 14.9948 112.445 15.8021 112.445 17.0938V21.0938H112.961C113.023 21.0938 113.086 21.099 113.148 21.1094C113.284 21.1302 113.352 21.2604 113.352 21.5H109.742V21.0938C109.888 21.0938 110.013 21.0781 110.117 21.0469C110.346 20.974 110.461 20.7188 110.461 20.2812V16.8281C110.461 16.6823 110.451 16.5417 110.43 16.4062C110.326 15.7083 109.977 15.3594 109.383 15.3594C109.227 15.3594 109.076 15.3958 108.93 15.4688C108.398 15.7292 108.096 16.2708 108.023 17.0938L108.008 21.0938H108.398Z" fill="#D13130"/>
</svg>
